<?xml version="1.0" standalone="no"?>
<!DOCTYPE svg PUBLIC "-//W3C//DTD SVG 20010904//EN"
 "http://www.w3.org/TR/2001/REC-SVG-20010904/DTD/svg10.dtd">
<svg version="1.0" xmlns="http://www.w3.org/2000/svg"
 width="512.000000pt" height="512.000000pt" viewBox="0 0 512.000000 512.000000"
 preserveAspectRatio="xMidYMid meet">

<g transform="translate(0.000000,512.000000) scale(0.100000,-0.100000)"
fill="#000000" stroke="none">
<path d="M2384 5110 c-1030 -70 -1927 -766 -2249 -1745 -145 -440 -169 -916
-69 -1362 215 -963 975 -1724 1934 -1937 361 -80 760 -80 1117 0 965 215 1722
972 1937 1937 80 357 80 757 0 1117 -150 673 -575 1264 -1170 1625 -352 215
-739 336 -1164 365 -158 11 -173 11 -336 0z m361 -850 c131 -15 226 -37 356
-80 632 -209 1084 -773 1159 -1445 81 -730 -331 -1449 -1005 -1750 -135 -60
-184 -72 -223 -56 -17 7 -34 20 -39 29 -4 10 -10 159 -13 332 -5 296 -7 318
-28 371 -13 31 -36 75 -52 98 -17 23 -28 41 -26 41 2 0 43 7 92 15 220 38 351
100 470 219 91 91 139 176 175 312 30 112 38 361 15 459 -20 84 -75 198 -122
253 l-34 40 15 58 c21 82 19 215 -5 309 -11 44 -26 83 -33 87 -38 26 -227 -35
-366 -118 l-94 -56 -106 23 c-93 21 -132 24 -321 24 -189 0 -228 -3 -321 -24
l-106 -23 -91 55 c-137 82 -331 145 -369 119 -7 -4 -22 -43 -33 -87 -24 -94
-26 -227 -5 -309 l15 -58 -34 -40 c-47 -55 -102 -169 -122 -253 -23 -99 -15
-348 15 -459 83 -308 293 -477 668 -536 l73 -12 -24 -31 c-36 -48 -58 -97 -71
-152 l-11 -50 -65 -22 c-121 -42 -247 -25 -336 46 -27 21 -70 70 -97 110 -27
39 -64 85 -84 102 -51 45 -129 79 -182 79 -91 0 -91 -34 -1 -99 83 -60 120
-112 195 -271 47 -99 128 -168 238 -201 62 -19 87 -21 199 -17 l129 6 0 -160
0 -160 -29 -29 c-35 -34 -58 -36 -135 -9 -230 79 -482 248 -672 450 -196 208
-360 527 -418 810 -112 550 43 1109 420 1518 366 398 909 602 1439 542z"/>
</g>
</svg>
