<?xml version="1.0" standalone="no"?>
<!DOCTYPE svg PUBLIC "-//W3C//DTD SVG 20010904//EN"
 "http://www.w3.org/TR/2001/REC-SVG-20010904/DTD/svg10.dtd">
<svg version="1.0" xmlns="http://www.w3.org/2000/svg"
 width="512.000000pt" height="512.000000pt" viewBox="0 0 512.000000 512.000000"
 preserveAspectRatio="xMidYMid meet">

<g transform="translate(0.000000,512.000000) scale(0.100000,-0.100000)"
fill="#000000" stroke="none">
<path d="M1484 5065 c-158 -34 -284 -148 -346 -311 l-23 -59 0 -2135 0 -2135
23 -59 c62 -164 189 -277 349 -311 100 -21 2045 -22 2144 -1 163 35 288 146
351 312 l23 59 0 2135 0 2135 -23 59 c-63 166 -188 277 -351 312 -94 20 -2054
19 -2147 -1z m2218 -535 c21 -6 43 -21 49 -32 9 -17 11 -486 10 -1857 l-2
-1836 -21 -22 -21 -23 -1157 0 -1157 0 -24 26 -24 26 4 1836 c2 1089 7 1844
12 1854 5 10 24 22 42 27 46 13 2241 14 2289 1z"/>
</g>
</svg>
